SplineFontDB: 3.2
FontName: AurebeshCode-Regular
FullName: Aurebesh Code Regular
FamilyName: Aurebesh Code
Weight: Regular
Copyright: Copyright (c) 2022, Aaron Ellington
UComments: "2022-11-13: Created with FontForge (http://fontforge.org)"
Version: 001.000
ItalicAngle: 0
UnderlinePosition: -100
UnderlineWidth: 50
Ascent: 800
Descent: 70
InvalidEm: 0
LayerCount: 2
Layer: 0 0 "Back" 1
Layer: 1 0 "Fore" 0
XUID: [1021 154 2129784653 13303634]
OS2Version: 0
OS2_WeightWidthSlopeOnly: 0
OS2_UseTypoMetrics: 1
CreationTime: 1668386527
ModificationTime: 1668386527
OS2TypoAscent: 0
OS2TypoAOffset: 1
OS2TypoDescent: 0
OS2TypoDOffset: 1
OS2TypoLinegap: 0
OS2WinAscent: 0
OS2WinAOffset: 1
OS2WinDescent: 0
OS2WinDOffset: 1
HheadAscent: 0
HheadAOffset: 1
HheadDescent: 0
HheadDOffset: 1
OS2Vendor: 'PfEd'
DEI: 91125
LangName: 1033 "" "" "" "AurebeshCode:Regular"
Encoding: ISO8859-1
UnicodeInterp: none
NameList: AGL For New Fonts
DisplaySize: -48
AntiAlias: 1
FitToEm: 0
OnlyBitmaps: 1
BeginChars: 256 95

StartChar: l
Encoding: 108 108 0
Width: 640
Flags: HW
LayerCount: 2
Fore
SplineSet
570 550 m 1
 570 0 l 1
 493.950195312 0.0009765625 l 1
 70 244.768554688 l 1
 105 305.389648438 l 1
 500 77.3359375 l 1
 500 550 l 1
 570 550 l 1
EndSplineSet
EndChar

StartChar: Q
Encoding: 81 81 1
Width: 640
Flags: HW
LayerCount: 2
Fore
SplineSet
70 660 m 1
 70 730 l 1
 570 730 l 1
 570 660 l 1
 70 660 l 1
500 70 m 1
 378.755859375 0 l 1
 70 0 l 1
 70 70 l 1
 500 70 l 1
570 365 m 1
 500 365 l 1
 500 730 l 1
 570 730 l 1
 570 365 l 1
140 -0 m 1
 70 0 l 1
 70 730 l 1
 140 730 l 1
 140 -0 l 1
EndSplineSet
EndChar

StartChar: seven
Encoding: 55 55 2
Width: 640
Flags: HW
LayerCount: 2
Fore
SplineSet
570 0 m 1
 500 0 l 1
 500 660 l 1
 70 660 l 1
 70 730 l 1
 570 730 l 1
 570 0 l 1
EndSplineSet
EndChar

StartChar: semicolon
Encoding: 59 59 3
Width: 640
Flags: HW
LayerCount: 2
Fore
SplineSet
355 206 m 1
 355 66 l 1
 285 66 l 1
 285 206 l 1
 355 206 l 1
355 416 m 1
 355 346 l 1
 285 346 l 1
 285 416 l 1
 355 416 l 1
EndSplineSet
EndChar

StartChar: underscore
Encoding: 95 95 4
Width: 640
Flags: HW
LayerCount: 2
Fore
SplineSet
70 70 m 1
 570 70 l 1
 570 0 l 1
 70 0 l 1
 70 70 l 1
EndSplineSet
EndChar

StartChar: asterisk
Encoding: 42 42 5
Width: 640
Flags: HW
LayerCount: 2
Fore
SplineSet
355 460 m 1
 355 359.498046875 l 1
 426.06640625 430.563476562 l 1
 475.563476562 381.06640625 l 1
 404.497070312 310.000976562 l 1
 505 310 l 1
 505 240 l 1
 404.49609375 240.000976562 l 1
 475.563476562 168.93359375 l 1
 426.06640625 119.436523438 l 1
 355 190.502929688 l 1
 355 90 l 1
 285 90 l 1
 285 190.50390625 l 1
 213.93359375 119.436523438 l 1
 164.436523438 168.93359375 l 1
 235.502929688 240.000976562 l 1
 135 240 l 1
 135 310 l 1
 235.501953125 310.000976562 l 1
 164.436523438 381.06640625 l 1
 213.93359375 430.563476562 l 1
 285 359.497070312 l 1
 285 460 l 1
 355 460 l 1
EndSplineSet
EndChar

StartChar: four
Encoding: 52 52 6
Width: 640
Flags: HW
LayerCount: 2
Fore
SplineSet
500 330.000976562 m 1
 70 330 l 1
 70 730 l 1
 140 730 l 1
 140 400.000976562 l 1
 500 400.000976562 l 1
 500 730 l 1
 570 730 l 1
 570 0 l 1
 500 0 l 1
 500 330.000976562 l 1
EndSplineSet
EndChar

StartChar: D
Encoding: 68 68 7
Width: 640
Flags: HW
LayerCount: 2
Fore
SplineSet
570 730 m 1
 374.397460938 0 l 1
 301.927734375 0 l 1
 390.349609375 330 l 1
 70 330 l 1
 88.755859375 400 l 1
 409.107421875 400 l 1
 478.774414062 660 l 1
 70 660 l 1
 88.755859375 730 l 1
 570 730 l 1
EndSplineSet
EndChar

StartChar: bracketleft
Encoding: 91 91 8
Width: 640
Flags: HW
LayerCount: 2
Fore
SplineSet
480 800 m 1
 480 730 l 1
 230 730 l 1
 229.999023438 0 l 1
 480 0 l 1
 480 -70 l 1
 160 -70 l 1
 160 800 l 1
 480 800 l 1
EndSplineSet
EndChar

StartChar: equal
Encoding: 61 61 9
Width: 640
Flags: HW
LayerCount: 2
Fore
SplineSet
70 345 m 1
 70 415 l 1
 570 415 l 1
 570 345 l 1
 70 345 l 1
70 135 m 1
 70 205 l 1
 570 205 l 1
 570 135 l 1
 70 135 l 1
EndSplineSet
EndChar

StartChar: r
Encoding: 114 114 10
Width: 640
Flags: HW
LayerCount: 2
Fore
SplineSet
570 550 m 1
 422.627929688 0 l 1
 350.159179688 0 l 1
 497.530273438 550 l 1
 570 550 l 1
521 550 m 1
 521 480 l 1
 70 480 l 1
 86.91796875 550 l 1
 521 550 l 1
EndSplineSet
EndChar

StartChar: backslash
Encoding: 92 92 11
Width: 640
Flags: HW
LayerCount: 2
Fore
SplineSet
167.135742188 800 m 1
 239.603515625 800 l 1
 472.719726562 -70 l 1
 400.251953125 -70 l 1
 167.135742188 800 l 1
EndSplineSet
EndChar

StartChar: R
Encoding: 82 82 12
Width: 640
Flags: HW
LayerCount: 2
Fore
SplineSet
570 730 m 1
 374.397460938 0 l 1
 301.927734375 0 l 1
 478.774414062 660 l 1
 70 660 l 1
 88.755859375 730 l 1
 570 730 l 1
EndSplineSet
EndChar

StartChar: one
Encoding: 49 49 13
Width: 640
Flags: HW
LayerCount: 2
Fore
SplineSet
285 730 m 1
 355 730 l 1
 355 0 l 1
 285 0 l 1
 285 730 l 1
570 70 m 1
 570 0 l 1
 70 0 l 1
 70 70 l 1
 570 70 l 1
355 730 m 1
 355 660 l 1
 70 660 l 1
 70 730 l 1
 355 730 l 1
EndSplineSet
EndChar

StartChar: d
Encoding: 100 100 14
Width: 640
Flags: HW
LayerCount: 2
Fore
SplineSet
570 550 m 1
 422.627929688 0 l 1
 350.159179688 0 l 1
 414.465820312 240 l 1
 70 240 l 1
 88.755859375 310 l 1
 433.221679688 310 l 1
 478.774414062 480 l 1
 70 480 l 1
 88.755859375 550 l 1
 570 550 l 1
EndSplineSet
EndChar

StartChar: zero
Encoding: 48 48 15
Width: 640
Flags: HW
LayerCount: 2
Fore
SplineSet
570 730 m 1
 570 0 l 1
 70 0 l 1
 70 730 l 1
 570 730 l 1
499.999023438 660 m 1
 139.999023438 660 l 1
 139.999023438 70 l 1
 499.999023438 70 l 1
 499.999023438 660 l 1
355 400 m 1
 355 330 l 1
 285 330 l 1
 285 400 l 1
 355 400 l 1
EndSplineSet
EndChar

StartChar: H
Encoding: 72 72 16
Width: 640
Flags: HW
LayerCount: 2
Fore
SplineSet
70 660 m 1
 70 730 l 1
 570 730 l 1
 570 660 l 1
 70 660 l 1
70 0 m 1
 70 70 l 1
 570 70 l 1
 570 0 l 1
 70 0 l 1
215 330 m 1
 215 400 l 1
 425 400 l 1
 425 330 l 1
 215 330 l 1
EndSplineSet
EndChar

StartChar: u
Encoding: 117 117 17
Width: 640
Flags: HW
LayerCount: 2
Fore
SplineSet
140 550 m 1
 140 70.0009765625 l 1
 500 70.0009765625 l 1
 500 480 l 1
 360.4140625 480.000976562 l 1
 294.018554688 365.000976562 l 1
 213.190429688 365.000976562 l 1
 320 550 l 1
 570 550 l 1
 570 0 l 1
 70 0 l 1
 70 550 l 1
 140 550 l 1
EndSplineSet
EndChar

StartChar: m
Encoding: 109 109 18
Width: 640
Flags: HW
LayerCount: 2
Fore
SplineSet
70 0 m 1
 217.37109375 550 l 1
 570 550 l 1
 570 480 l 1
 271.083984375 480 l 1
 161.224609375 70 l 1
 570 70 l 1
 570 0 l 1
 70 0 l 1
EndSplineSet
EndChar

StartChar: parenleft
Encoding: 40 40 19
Width: 640
Flags: HW
LayerCount: 2
Fore
SplineSet
480 765 m 1
 480 695 l 1
 445 695 l 2
 372.819335938 695 321.265625 669.91015625 286.375976562 618.971679688 c 0
 249.325195312 564.877929688 230 480.233398438 230 365 c 0
 230 249.766601562 249.325195312 165.122070312 286.375976562 111.028320312 c 0
 321.265625 60.08984375 372.819335938 35 445 35 c 2
 480 35 l 1
 480 -35 l 1
 445 -35 l 2
 350.513671875 -35 277.068359375 0.7431640625 228.624023438 71.4716796875 c 0
 182.341796875 139.044921875 160 236.899414062 160 365 c 0
 160 493.100585938 182.341796875 590.955078125 228.624023438 658.528320312 c 0
 277.068359375 729.256835938 350.513671875 765 445 765 c 2
 480 765 l 1
480 765 m 1
 480 695 l 1
 445 695 l 2
 372.819335938 695 321.265625 669.91015625 286.375976562 618.971679688 c 0
 249.325195312 564.877929688 230 480.233398438 230 365 c 0
 230 249.766601562 249.325195312 165.122070312 286.375976562 111.028320312 c 0
 321.265625 60.08984375 372.819335938 35 445 35 c 2
 480 35 l 1
 480 -35 l 1
 445 -35 l 2
 350.513671875 -35 277.068359375 0.7431640625 228.624023438 71.4716796875 c 0
 182.341796875 139.044921875 160 236.899414062 160 365 c 0
 160 493.100585938 182.341796875 590.955078125 228.624023438 658.528320312 c 0
 277.068359375 729.256835938 350.513671875 765 445 765 c 2
 480 765 l 1
EndSplineSet
EndChar

StartChar: c
Encoding: 99 99 20
Width: 640
Flags: HW
LayerCount: 2
Fore
SplineSet
355.064453125 412.064453125 m 1
 355.064453125 137.064453125 l 1
 285.064453125 137.064453125 l 1
 285.064453125 412.064453125 l 1
 355.064453125 412.064453125 l 1
140 550 m 1
 140 137 l 1
 70 137 l 1
 70 550 l 1
 140 550 l 1
570 412 m 1
 570 0 l 1
 500 0 l 1
 500 412 l 1
 570 412 l 1
EndSplineSet
EndChar

StartChar: question
Encoding: 63 63 21
Width: 640
Flags: HW
LayerCount: 2
Fore
SplineSet
355 70 m 1
 355 0 l 1
 285 0 l 1
 285 70 l 1
 355 70 l 1
570 730 m 1
 570 330 l 1
 354.999023438 330 l 1
 355 210 l 1
 285 210 l 1
 285 400 l 1
 499.999023438 400 l 1
 499.999023438 660 l 1
 70 660 l 1
 70 730 l 1
 570 730 l 1
EndSplineSet
EndChar

StartChar: nine
Encoding: 57 57 22
Width: 640
Flags: HW
LayerCount: 2
Fore
SplineSet
570 330 m 1
 70 330 l 1
 70 730 l 1
 570 730 l 1
 570 330 l 1
500 660 m 1
 139.999023438 660 l 1
 139.999023438 400 l 1
 500 400 l 1
 500 660 l 1
70 70 m 1
 570 70 l 1
 570 0 l 1
 70 0 l 1
 70 70 l 1
570 0 m 1
 500 0 l 1
 500 398 l 1
 570 398 l 1
 570 0 l 1
EndSplineSet
EndChar

StartChar: L
Encoding: 76 76 23
Width: 640
Flags: HW
LayerCount: 2
Fore
SplineSet
570 730 m 1
 570 0 l 1
 467.01171875 0 l 1
 69.998046875 397.013671875 l 1
 119.495117188 446.510742188 l 1
 500 66.005859375 l 1
 500 730 l 1
 570 730 l 1
EndSplineSet
EndChar

StartChar: period
Encoding: 46 46 24
Width: 640
Flags: HW
LayerCount: 2
Fore
SplineSet
285 70 m 1
 355 70 l 1
 355 0 l 1
 285 0 l 1
 285 70 l 1
EndSplineSet
EndChar

StartChar: G
Encoding: 71 71 25
Width: 640
Flags: HW
LayerCount: 2
Fore
SplineSet
70 0 m 1
 70 730 l 1
 140 730 l 1
 140 70 l 1
 320.68359375 70 l 1
 478.774414062 660 l 1
 279.999023438 660 l 1
 280 550 l 1
 210 550 l 1
 210 730 l 1
 570 730 l 1
 374.397460938 0 l 1
 70 0 l 1
EndSplineSet
EndChar

StartChar: asciitilde
Encoding: 126 126 26
Width: 640
Flags: HW
LayerCount: 2
Fore
SplineSet
236.666992188 400 m 0
 268.161132812 400 293.4453125 384.708007812 313.85546875 358.255859375 c 0
 321.303710938 348.603515625 328.0859375 337.565429688 335.041992188 324.30859375 c 2
 335.860351562 322.743164062 l 1
 336.66015625 321.198242188 l 2
 337.123046875 320.301757812 337.579101562 319.409179688 338.034179688 318.509765625 c 2
 338.814453125 316.961914062 l 2
 341.575195312 311.458007812 344.408203125 305.516601562 348.467773438 296.799804688 c 2
 353.872070312 285.157226562 l 2
 366.752929688 257.505859375 373.209960938 245.411132812 381.305664062 234.842773438 c 2
 381.564453125 234.505859375 l 2
 389.799804688 223.833007812 396.13671875 220 403.333007812 220 c 0
 420.1328125 220 439.283203125 230.340820312 460.985351562 253.779296875 c 0
 485.91796875 280.70703125 511.872070312 322.752929688 538.23828125 379.704101562 c 1
 601.76171875 350.295898438 l 1
 572.572265625 287.247070312 542.970703125 239.29296875 512.348632812 206.220703125 c 0
 478.495117188 169.659179688 442.088867188 150 403.333007812 150 c 0
 371.838867188 150 346.5546875 165.291992188 326.14453125 191.744140625 c 0
 318.696289062 201.396484375 311.9140625 212.434570312 304.958007812 225.69140625 c 2
 304.139648438 227.256835938 l 1
 303.33984375 228.801757812 l 2
 302.876953125 229.698242188 302.420898438 230.590820312 301.965820312 231.490234375 c 2
 301.185546875 233.038085938 l 2
 298.424804688 238.541992188 295.591796875 244.483398438 291.532226562 253.200195312 c 2
 286.127929688 264.842773438 l 2
 273.247070312 292.494140625 266.790039062 304.588867188 258.694335938 315.157226562 c 2
 258.435546875 315.494140625 l 2
 250.200195312 326.166992188 243.86328125 330 236.666992188 330 c 0
 219.8671875 330 200.716796875 319.659179688 179.014648438 296.220703125 c 0
 154.08203125 269.29296875 128.127929688 227.247070312 101.76171875 170.295898438 c 1
 38.23828125 199.704101562 l 1
 67.427734375 262.752929688 97.029296875 310.70703125 127.651367188 343.779296875 c 0
 161.504882812 380.340820312 197.911132812 400 236.666992188 400 c 0
EndSplineSet
EndChar

StartChar: X
Encoding: 88 88 27
Width: 640
Flags: HW
LayerCount: 2
Fore
SplineSet
70 0 m 1
 265.602539062 730 l 1
 374.397460938 730 l 1
 570 0 l 1
 70 0 l 1
478.774414062 70 m 1
 319.999023438 662.553710938 l 1
 161.224609375 70 l 1
 478.774414062 70 l 1
EndSplineSet
EndChar

StartChar: two
Encoding: 50 50 28
Width: 640
Flags: HW
LayerCount: 2
Fore
SplineSet
70 330 m 1
 70 400 l 1
 499.999023438 400 l 1
 499.999023438 660 l 1
 70 660 l 1
 70 730 l 1
 570 730 l 1
 570 330 l 1
 70 330 l 1
570 70 m 1
 570 0 l 1
 70 0 l 1
 70 70 l 1
 570 70 l 1
140 0 m 1
 70 0 l 1
 70 398 l 1
 140 398 l 1
 140 0 l 1
EndSplineSet
EndChar

StartChar: n
Encoding: 110 110 29
Width: 640
Flags: HW
LayerCount: 2
Fore
SplineSet
422.62890625 550 m 1
 275.256835938 0 l 1
 202.788085938 0 l 1
 350.159179688 550 l 1
 422.62890625 550 l 1
350.159179688 550 m 1
 422.62890625 550 l 1
 570 0 l 1
 497.53125 0 l 1
 350.159179688 550 l 1
248.319335938 550.000976562 m 1
 233.278320312 529.375976562 l 2
 172.583007812 446.157226562 141.796875 361.364257812 140.147460938 274.336914062 c 0
 138.5 187.428710938 165.993164062 102.87890625 223.364257812 19.9052734375 c 2
 237.127929688 -0 l 1
 152.5546875 -0 l 1
 96.0224609375 88.5654296875 68.359375 180.663085938 70.16015625 275.663085938 c 0
 71.953125 370.276367188 102.85546875 461.8984375 162.251953125 550.000976562 c 1
 248.319335938 550.000976562 l 1
EndSplineSet
EndChar

StartChar: k
Encoding: 107 107 30
Width: 640
Flags: HW
LayerCount: 2
Fore
SplineSet
70 550 m 1
 570 550 l 1
 570 0 l 1
 70 0 l 1
 70 70 l 1
 499.999023438 70 l 1
 499.999023438 480 l 1
 70 480 l 1
 70 550 l 1
EndSplineSet
EndChar

StartChar: s
Encoding: 115 115 31
Width: 640
Flags: HW
LayerCount: 2
Fore
SplineSet
500 0 m 1
 500 550 l 1
 570 550 l 1
 570 0 l 1
 500 0 l 1
158.440429688 550 m 1
 570 23.228515625 l 1
 570 0 l 1
 499.31640625 0 l 1
 70 549.5 l 1
 70.638671875 550 l 1
 158.440429688 550 l 1
88.1171875 140.6015625 m 1
 360.508789062 67.615234375 l 1
 342.390625 0 l 1
 70 72.9873046875 l 1
 88.1171875 140.6015625 l 1
EndSplineSet
EndChar

StartChar: e
Encoding: 101 101 32
Width: 640
Flags: HW
LayerCount: 2
Fore
SplineSet
142.469726562 550 m 1
 253.606445312 135.23046875 l 1
 364.743164062 550 l 1
 570 550 l 1
 570 480 l 1
 528.205078125 480 l 1
 528.205078125 0 l 1
 458.205078125 0 l 1
 458.205078125 480 l 1
 418.45703125 480 l 1
 289.840820312 0 l 1
 217.372070312 0 l 1
 70 550 l 1
 142.469726562 550 l 1
EndSplineSet
EndChar

StartChar: W
Encoding: 87 87 33
Width: 640
Flags: HW
LayerCount: 2
Fore
SplineSet
70 0 m 1
 70 730 l 1
 570 730 l 1
 570 0 l 1
 70 0 l 1
499.999023438 660 m 1
 139.999023438 660 l 1
 139.999023438 70 l 1
 499.999023438 70 l 1
 499.999023438 660 l 1
EndSplineSet
EndChar

StartChar: N
Encoding: 78 78 34
Width: 640
Flags: HW
LayerCount: 2
Fore
SplineSet
124.326171875 0 m 1
 124.999023438 2.515625 l 1
 124.55078125 3.6416015625 l 2
 76.8955078125 123.82421875 53 244.33984375 53 365 c 0
 53 486.87890625 77.380859375 608.611328125 126.001953125 730 c 1
 201.700195312 730 l 1
 196.124023438 716.57421875 l 2
 147.322265625 599.080078125 123 481.9609375 123 365 c 0
 123 284.66796875 134.473632812 204.26171875 157.471679688 123.7109375 c 1
 319.927734375 730 l 1
 392.397460938 730 l 1
 588 0 l 1
 515.53125 0 l 1
 356.162109375 594.770507812 l 1
 198.717773438 7.1806640625 l 1
 201.700195312 0 l 1
 124.326171875 0 l 1
EndSplineSet
EndChar

StartChar: B
Encoding: 66 66 35
Width: 640
Flags: HW
LayerCount: 2
Fore
SplineSet
142.46875 330 m 1
 212.135742188 70 l 1
 427.864257812 70 l 1
 497.53125 330 l 1
 570 330 l 1
 481.577148438 0 l 1
 158.422851562 0 l 1
 70 330 l 1
 142.46875 330 l 1
409 400 m 1
 409 330 l 1
 231 330 l 1
 231 400 l 1
 409 400 l 1
481.577148438 730 m 1
 570 400 l 1
 497.53125 400 l 1
 427.864257812 660 l 1
 212.135742188 660 l 1
 142.46875 400 l 1
 70 400 l 1
 158.422851562 730 l 1
 481.577148438 730 l 1
EndSplineSet
EndChar

StartChar: at
Encoding: 64 64 36
Width: 640
Flags: HW
LayerCount: 2
Fore
SplineSet
70 50 m 1
 70 550 l 1
 570 550 l 1
 570 50 l 1
 70 50 l 1
500 480 m 1
 139.999023438 480 l 1
 139.999023438 120 l 1
 500 120 l 1
 500 190 l 1
 210 190 l 1
 210 410 l 1
 430 410 l 1
 430 260 l 1
 500 260 l 1
 500 480 l 1
360 340 m 1
 280 340 l 1
 280 260 l 1
 360 260 l 1
 360 340 l 1
EndSplineSet
EndChar

StartChar: parenright
Encoding: 41 41 37
Width: 640
Flags: HW
LayerCount: 2
Fore
SplineSet
160 765 m 1
 195 765 l 2
 289.486328125 765 362.931640625 729.256835938 411.375976562 658.528320312 c 0
 457.658203125 590.955078125 480 493.100585938 480 365 c 0
 480 236.899414062 457.658203125 139.044921875 411.375976562 71.4716796875 c 0
 362.931640625 0.7431640625 289.486328125 -35 195 -35 c 2
 160 -35 l 1
 160 35 l 1
 195 35 l 2
 267.180664062 35 318.734375 60.08984375 353.624023438 111.028320312 c 0
 390.674804688 165.122070312 410 249.766601562 410 365 c 0
 410 480.233398438 390.674804688 564.877929688 353.624023438 618.971679688 c 0
 318.734375 669.91015625 267.180664062 695 195 695 c 2
 160 695 l 1
 160 765 l 1
EndSplineSet
EndChar

StartChar: t
Encoding: 116 116 38
Width: 640
Flags: HW
LayerCount: 2
Fore
SplineSet
285 0 m 1
 70 215 l 1
 168.994140625 215 l 1
 285 98.9951171875 l 1
 285 550 l 1
 355 550 l 1
 355 98.9951171875 l 1
 471.005859375 215 l 1
 570 215 l 1
 355 0 l 1
 285 0 l 1
EndSplineSet
EndChar

StartChar: braceright
Encoding: 125 125 39
Width: 640
Flags: HW
LayerCount: 2
Fore
SplineSet
195 765 m 2
 289.486328125 765 362.931640625 729.256835938 411.375976562 658.528320312 c 0
 457.658203125 590.955078125 480 493.100585938 480 365 c 0
 480 236.899414062 457.658203125 139.044921875 411.375976562 71.4716796875 c 0
 362.931640625 0.7431640625 289.486328125 -35 195 -35 c 2
 160 -35 l 1
 160 35 l 1
 195 35 l 2
 267.180664062 35 318.734375 60.08984375 353.624023438 111.028320312 c 0
 386.81640625 159.489257812 405.783203125 232.469726562 409.373046875 329.997070312 c 1
 215 330 l 1
 215 400 l 1
 409.373046875 400.001953125 l 1
 405.783203125 497.529296875 386.81640625 570.510742188 353.624023438 618.971679688 c 0
 318.734375 669.91015625 267.180664062 695 195 695 c 2
 160 695 l 1
 160 765 l 1
 195 765 l 2
EndSplineSet
EndChar

StartChar: b
Encoding: 98 98 40
Width: 640
Flags: HW
LayerCount: 2
Fore
SplineSet
142.467773438 240.000976562 m 1
 188.01953125 70 l 1
 451.98046875 70 l 1
 497.532226562 240.000976562 l 1
 570 240.000976562 l 1
 505.693359375 0 l 1
 134.306640625 0 l 1
 70 240.000976562 l 1
 142.467773438 240.000976562 l 1
420 310 m 1
 420 240 l 1
 220 240 l 1
 220 310 l 1
 420 310 l 1
505.693359375 550.000976562 m 1
 570 310 l 1
 497.532226562 310 l 1
 451.98046875 480.000976562 l 1
 188.01953125 480.000976562 l 1
 142.467773438 310 l 1
 70 310 l 1
 134.306640625 550.000976562 l 1
 505.693359375 550.000976562 l 1
EndSplineSet
EndChar

StartChar: plus
Encoding: 43 43 41
Width: 640
Flags: HW
LayerCount: 2
Fore
SplineSet
355 460 m 1
 355 310.000976562 l 1
 505 310 l 1
 505 240 l 1
 355 240.000976562 l 1
 355 90 l 1
 285 90 l 1
 285 240.000976562 l 1
 135 240 l 1
 135 310 l 1
 285 310.000976562 l 1
 285 460 l 1
 355 460 l 1
EndSplineSet
EndChar

StartChar: T
Encoding: 84 84 42
Width: 640
Flags: HW
LayerCount: 2
Fore
SplineSet
285 0 m 1
 70 215 l 1
 168.994140625 215 l 1
 285 98.9951171875 l 1
 285 730 l 1
 355 730 l 1
 355 98.9951171875 l 1
 471.005859375 215 l 1
 570 215 l 1
 355 0 l 1
 285 0 l 1
EndSplineSet
EndChar

StartChar: comma
Encoding: 44 44 43
Width: 640
Flags: HW
LayerCount: 2
Fore
SplineSet
285 -70 m 1
 285 110 l 1
 355 110 l 1
 355 -70 l 1
 285 -70 l 1
EndSplineSet
EndChar

StartChar: A
Encoding: 65 65 44
Width: 640
Flags: HW
LayerCount: 2
Fore
SplineSet
239.999023438 330 m 1
 570 0 l 1
 471.004882812 0 l 1
 211.004882812 260 l 1
 140 260 l 1
 140 0 l 1
 70 0 l 1
 70 330 l 1
 239.999023438 330 l 1
239.999023438 400 m 1
 70 400 l 1
 70 730 l 1
 140 730 l 1
 140 470 l 1
 211.004882812 470 l 1
 471.004882812 730 l 1
 570 730 l 1
 239.999023438 400 l 1
EndSplineSet
EndChar

StartChar: O
Encoding: 79 79 45
Width: 640
Flags: HW
LayerCount: 2
Fore
SplineSet
441.28125 730 m 1
 570 0 l 1
 498.919921875 0 l 1
 141.079101562 0 l 1
 141.079101562 0 l 1
 70 0 l 1
 198.717773438 730 l 1
 441.28125 730 l 1
382.543945312 660 m 1
 257.455078125 660 l 1
 153.421875 70 l 1
 486.577148438 70 l 1
 382.543945312 660 l 1
EndSplineSet
EndChar

StartChar: bracketright
Encoding: 93 93 47
Width: 640
Flags: HW
LayerCount: 2
Fore
SplineSet
160 800 m 1
 480 800 l 1
 480 -70 l 1
 160 -70 l 1
 160 0 l 1
 410.000976562 0 l 1
 410 730 l 1
 160 730 l 1
 160 800 l 1
EndSplineSet
EndChar

StartChar: numbersign
Encoding: 35 35 48
Width: 640
Flags: HW
LayerCount: 2
Fore
SplineSet
250 550 m 1
 250 411 l 1
 390 411 l 1
 390 550 l 1
 460 550 l 1
 460 411 l 1
 570 411 l 1
 570 341 l 1
 460 341 l 1
 460 201 l 1
 570 201 l 1
 570 131 l 1
 460 131 l 1
 460 0 l 1
 390 0 l 1
 390 131 l 1
 250 131 l 1
 250 0 l 1
 180 0 l 1
 180 131 l 1
 70 131 l 1
 70 201 l 1
 180 201 l 1
 180 341 l 1
 70 341 l 1
 70 411 l 1
 180 411 l 1
 180 550 l 1
 250 550 l 1
390 341 m 1
 250 341 l 1
 250 201 l 1
 390 201 l 1
 390 341 l 1
EndSplineSet
EndChar

StartChar: U
Encoding: 85 85 49
Width: 640
Flags: HW
LayerCount: 2
Fore
SplineSet
296.905273438 550 m 1
 216.078125 550 l 1
 320 730 l 1
 570 730 l 1
 570 0 l 1
 70 0 l 1
 70 730 l 1
 140 730 l 1
 140 70 l 1
 500 70 l 1
 500 660 l 1
 360.4140625 660 l 1
 296.905273438 550 l 1
EndSplineSet
EndChar

StartChar: v
Encoding: 118 118 50
Width: 640
Flags: HW
LayerCount: 2
Fore
SplineSet
570 550 m 1
 355 335.001953125 l 1
 355 0 l 1
 285 0 l 1
 285 335 l 1
 70 550 l 1
 168.994140625 550 l 1
 320 398.994140625 l 1
 471.004882812 550 l 1
 570 550 l 1
EndSplineSet
EndChar

StartChar: five
Encoding: 53 53 51
Width: 640
Flags: HW
LayerCount: 2
Fore
SplineSet
570 730 m 1
 570 660 l 1
 70 660 l 1
 70 730 l 1
 570 730 l 1
70 0 m 1
 70 70 l 1
 499.999023438 70.0009765625 l 1
 499.999023438 330.000976562 l 1
 70 330 l 1
 70 400 l 1
 570 400 l 1
 570 0 l 1
 70 0 l 1
140 332 m 1
 70 332 l 1
 70 730 l 1
 140 730 l 1
 140 332 l 1
EndSplineSet
EndChar

StartChar: z
Encoding: 122 122 52
Width: 640
Flags: HW
LayerCount: 2
Fore
SplineSet
570 550 m 1
 570 0 l 1
 515.499023438 0 l 1
 515.5 -0.5 l 1
 70.5 -0.5 l 1
 70.4990234375 0 l 1
 70 0 l 1
 70 213 l 1
 140 213 l 1
 140 69.5009765625 l 1
 500 69.5009765625 l 1
 500 377 l 1
 262.994140625 377 l 1
 168.995117188 283 l 1
 70 283 l 1
 234 447 l 1
 500 447 l 1
 500 550 l 1
 570 550 l 1
EndSplineSet
EndChar

StartChar: g
Encoding: 103 103 53
Width: 640
Flags: HW
LayerCount: 2
Fore
SplineSet
570 550 m 1
 422.626953125 0 l 1
 70 0 l 1
 70 550 l 1
 140 550 l 1
 140 70 l 1
 368.915039062 70 l 1
 478.774414062 480 l 1
 280 480 l 1
 280 365 l 1
 210 365 l 1
 210 550 l 1
 570 550 l 1
EndSplineSet
EndChar

StartChar: q
Encoding: 113 113 54
Width: 640
Flags: HW
LayerCount: 2
Fore
SplineSet
140 0 m 1
 70 0 l 1
 70 550 l 1
 140 550 l 1
 140 0 l 1
570 275 m 1
 500 275 l 1
 500 550 l 1
 570 550 l 1
 570 275 l 1
569.5 549.5 m 1
 569.5 479.5 l 1
 69.5 479.5 l 1
 69.5 549.5 l 1
 569.5 549.5 l 1
500.5 69.5 m 1
 500.5 68.6337890625 l 1
 500 69.5 l 1
 378.755859375 -0.5 l 1
 70.5 -0.5 l 1
 70.5 69.5 l 1
 500.5 69.5 l 1
EndSplineSet
EndChar

StartChar: exclam
Encoding: 33 33 55
Width: 640
Flags: HW
LayerCount: 2
Fore
SplineSet
285 70 m 1
 285 800 l 1
 355 800 l 1
 355 70 l 1
 285 70 l 1
285 0 m 1
 355 0 l 1
 355 -70 l 1
 285 -70 l 1
 285 0 l 1
EndSplineSet
EndChar

StartChar: Y
Encoding: 89 89 56
Width: 640
Flags: HW
LayerCount: 2
Fore
SplineSet
286.220703125 730 m 1
 334.452148438 550 l 1
 261.983398438 550 l 1
 232.508789062 660 l 1
 161.224609375 660 l 1
 319.999023438 67.4462890625 l 1
 497.530273438 730 l 1
 570 730 l 1
 374.397460938 0 l 1
 265.602539062 0 l 1
 70 730 l 1
 286.220703125 730 l 1
EndSplineSet
EndChar

StartChar: x
Encoding: 120 120 57
Width: 640
Flags: HW
LayerCount: 2
Fore
SplineSet
100 0 m 1
 247.37109375 550 l 1
 319.840820312 550 l 1
 191.224609375 70 l 1
 448.616210938 70 l 1
 320 550 l 1
 392.469726562 550 l 1
 539.840820312 0 l 1
 100 0 l 1
EndSplineSet
EndChar

StartChar: V
Encoding: 86 86 58
Width: 640
Flags: HW
LayerCount: 2
Fore
SplineSet
570 730 m 1
 355 515.001953125 l 1
 355 0 l 1
 285 0 l 1
 285 515 l 1
 70 730 l 1
 168.994140625 730 l 1
 320 578.994140625 l 1
 471.004882812 730 l 1
 570 730 l 1
EndSplineSet
EndChar

StartChar: dollar
Encoding: 36 36 59
Width: 640
Flags: HW
LayerCount: 2
Fore
SplineSet
70 730 m 1
 285 730 l 1
 285 800 l 1
 355 800 l 1
 355 730 l 1
 570 730 l 1
 570 660 l 1
 355 660 l 1
 355 400 l 1
 570 400 l 1
 570 0 l 1
 355 0 l 1
 355 -70 l 1
 285 -70 l 1
 285 0 l 1
 70 0 l 1
 70 70 l 1
 285 70.0009765625 l 1
 285 330.000976562 l 1
 70 330 l 1
 70 730 l 1
499.999023438 330.000976562 m 1
 355 330.000976562 l 1
 355 70.0009765625 l 1
 499.999023438 70.0009765625 l 1
 499.999023438 330.000976562 l 1
140 400 m 1
 285 400 l 1
 285 660 l 1
 140 660 l 1
 140 400 l 1
EndSplineSet
EndChar

StartChar: M
Encoding: 77 77 60
Width: 640
Flags: HW
LayerCount: 2
Fore
SplineSet
570 730 m 1
 570 660 l 1
 319.315429688 660 l 1
 161.224609375 70 l 1
 570 70 l 1
 570 0 l 1
 70 0 l 1
 265.602539062 730 l 1
 570 730 l 1
EndSplineSet
EndChar

StartChar: greater
Encoding: 62 62 61
Width: 640
Flags: HW
LayerCount: 2
Fore
SplineSet
56.912109375 778.905273438 m 1
 623.905273438 365 l 1
 56.912109375 -48.9052734375 l 1
 15.638671875 7.6328125 l 1
 505.18359375 365 l 1
 15.638671875 722.3671875 l 1
 56.912109375 778.905273438 l 1
EndSplineSet
EndChar

StartChar: Z
Encoding: 90 90 62
Width: 640
Flags: HW
LayerCount: 2
Fore
SplineSet
70 0 m 1
 70 270 l 1
 140 270 l 1
 140 70 l 1
 500 70 l 1
 500 434 l 1
 262.994140625 434 l 1
 168.995117188 340 l 1
 70 340 l 1
 234 504 l 1
 500 504 l 1
 500 730 l 1
 570 730 l 1
 570 0 l 1
 70 0 l 1
EndSplineSet
EndChar

StartChar: C
Encoding: 67 67 63
Width: 640
Flags: HW
LayerCount: 2
Fore
SplineSet
355 550 m 1
 355 180 l 1
 285 180 l 1
 285 550 l 1
 355 550 l 1
140 730 m 1
 140 180 l 1
 70 180 l 1
 70 730 l 1
 140 730 l 1
570 550 m 1
 570 0 l 1
 500 0 l 1
 500 550 l 1
 570 550 l 1
EndSplineSet
EndChar

StartChar: i
Encoding: 105 105 64
Width: 640
Flags: HW
LayerCount: 2
Fore
SplineSet
456 550 m 1
 456 0 l 1
 386 0 l 1
 385.999023438 487.948242188 l 1
 219 391.530273438 l 1
 184 452.15234375 l 1
 353.477539062 550 l 1
 456 550 l 1
EndSplineSet
EndChar

StartChar: y
Encoding: 121 121 65
Width: 640
Flags: HW
LayerCount: 2
Fore
SplineSet
570 550 m 1
 422.627929688 0 l 1
 350.159179688 0 l 1
 497.530273438 550 l 1
 570 550 l 1
70 550 m 1
 142.469726562 550 l 1
 289.840820312 0 l 1
 217.372070312 0 l 1
 70 550 l 1
242 0 m 1
 242 70 l 1
 397 70 l 1
 397 0 l 1
 242 0 l 1
100 480 m 1
 100 550 l 1
 278 550 l 1
 278 480 l 1
 100 480 l 1
288.419921875 550 m 1
 337.991210938 365 l 1
 265.520507812 365 l 1
 215.951171875 550 l 1
 288.419921875 550 l 1
EndSplineSet
EndChar

StartChar: S
Encoding: 83 83 66
Width: 640
Flags: HW
LayerCount: 2
Fore
SplineSet
500 0 m 1
 500 730 l 1
 570 730 l 1
 570 0 l 1
 500 0 l 1
150.828125 730 m 1
 569.999023438 3.9755859375 l 1
 569.999023438 0 l 1
 491.465820312 0 l 1
 70 730 l 1
 150.828125 730 l 1
88.1171875 140.6015625 m 1
 360.508789062 67.615234375 l 1
 342.390625 0 l 1
 70 72.9873046875 l 1
 88.1171875 140.6015625 l 1
EndSplineSet
EndChar

StartChar: ampersand
Encoding: 38 38 67
Width: 640
Flags: HW
LayerCount: 2
Fore
SplineSet
70 0 m 1
 70 70 l 1
 500 70 l 1
 500 660 l 1
 70 660 l 1
 70 730 l 1
 570 730 l 1
 570 0 l 1
 70 0 l 1
71 480 m 1
 71 730 l 1
 141 730 l 1
 141 480 l 1
 71 480 l 1
71 0 m 1
 71 250 l 1
 141 250 l 1
 141 0 l 1
 71 0 l 1
320 400 m 1
 570 400 l 1
 570 330 l 1
 320 330 l 1
 320 400 l 1
EndSplineSet
EndChar

StartChar: J
Encoding: 74 74 68
Width: 640
Flags: HW
LayerCount: 2
Fore
SplineSet
570 730 m 1
 374.397460938 0 l 1
 70 0 l 1
 70 70 l 1
 320.682617188 70 l 1
 396.239257812 351.974609375 l 1
 384.1328125 334.83203125 371.7734375 318.821289062 359.159179688 303.94140625 c 0
 276.891601562 206.897460938 182.801757812 157.098632812 78.3828125 157.098632812 c 2
 70 157.098632812 l 1
 70 227.099609375 l 1
 78.3828125 227.098632812 l 2
 160.735351562 227.098632812 236.032226562 266.951171875 305.764648438 349.20703125 c 0
 376.908203125 433.12890625 441.071289062 560.11328125 497.530273438 730 c 1
 570 730 l 1
EndSplineSet
EndChar

StartChar: I
Encoding: 73 73 69
Width: 640
Flags: HW
LayerCount: 2
Fore
SplineSet
462 730 m 1
 462 0 l 1
 392 0 l 1
 392 653.921875 l 1
 212 549.998046875 l 1
 177 610.620117188 l 1
 383.7734375 730 l 1
 462 730 l 1
EndSplineSet
EndChar

StartChar: quotesingle
Encoding: 39 39 70
Width: 640
Flags: HW
LayerCount: 2
Fore
SplineSet
285 620 m 1
 285 800 l 1
 355 800 l 1
 355 620 l 1
 285 620 l 1
EndSplineSet
EndChar

StartChar: h
Encoding: 104 104 71
Width: 640
Flags: HW
LayerCount: 2
Fore
SplineSet
70 480 m 1
 70 550 l 1
 570 550 l 1
 570 480 l 1
 70 480 l 1
70 0 m 1
 70 70 l 1
 570 70 l 1
 570 0 l 1
 70 0 l 1
215 240 m 1
 215 310 l 1
 425 310 l 1
 425 240 l 1
 215 240 l 1
EndSplineSet
EndChar

StartChar: three
Encoding: 51 51 72
Width: 640
Flags: HW
LayerCount: 2
Fore
SplineSet
70 0 m 1
 70 70 l 1
 500 70 l 1
 500 660 l 1
 70 660 l 1
 70 730 l 1
 570 730 l 1
 570 0 l 1
 70 0 l 1
430 400 m 1
 430 330 l 1
 70 330 l 1
 70 400 l 1
 430 400 l 1
70 330 m 1
 70 400 l 1
 537 400 l 1
 537 330 l 1
 70 330 l 1
EndSplineSet
EndChar

StartChar: six
Encoding: 54 54 73
Width: 640
Flags: HW
LayerCount: 2
Fore
SplineSet
70 0 m 1
 70 400 l 1
 570 400 l 1
 570 0 l 1
 70 0 l 1
500 330 m 1
 140 330 l 1
 140 70 l 1
 500 70 l 1
 500 330 l 1
570 730 m 1
 570 660 l 1
 70 660 l 1
 70 730 l 1
 570 730 l 1
140 332 m 1
 70 332 l 1
 70 730 l 1
 140 730 l 1
 140 332 l 1
EndSplineSet
EndChar

StartChar: eight
Encoding: 56 56 74
Width: 640
Flags: HW
LayerCount: 2
Fore
SplineSet
570 70 m 1
 570 0 l 1
 70 0 l 1
 70 730 l 1
 570 730 l 1
 570 70 l 1
499.999023438 330 m 1
 139.999023438 330 l 1
 139.999023438 70 l 1
 499.999023438 70 l 1
 499.999023438 330 l 1
500 660 m 1
 140 660 l 1
 140 400 l 1
 500 400 l 1
 500 660 l 1
EndSplineSet
EndChar

StartChar: slash
Encoding: 47 47 75
Width: 640
Flags: HW
LayerCount: 2
Fore
SplineSet
472.719726562 800 m 1
 239.603515625 -70 l 1
 167.135742188 -70 l 1
 400.251953125 800 l 1
 472.719726562 800 l 1
EndSplineSet
EndChar

StartChar: bar
Encoding: 124 124 76
Width: 640
Flags: HW
LayerCount: 2
Fore
SplineSet
285 -70 m 1
 285 800 l 1
 355 800 l 1
 355 -70 l 1
 285 -70 l 1
EndSplineSet
EndChar

StartChar: F
Encoding: 70 70 77
Width: 640
Flags: HW
LayerCount: 2
Fore
SplineSet
70 0 m 1
 70 400.000976562 l 1
 72.314453125 400 l 2
 153.333007812 400 224.126953125 416.842773438 285.00390625 450.918945312 c 1
 285 730 l 1
 355 730 l 1
 355.002929688 501.64453125 l 1
 414.130859375 555.747070312 460.97265625 631.6796875 495.959960938 729.9921875 c 1
 570 730 l 1
 566.15234375 718.708984375 l 2
 518.666015625 579.381835938 448.00390625 476.8515625 355.002929688 412.18359375 c 1
 355 70 l 1
 570 70 l 1
 570 0 l 1
 70 0 l 1
285.001953125 372.54296875 m 1
 240.698242188 352.594726562 192.342773438 339.622070312 140 333.708984375 c 1
 140 70 l 1
 284.999023438 70 l 1
 285.001953125 372.54296875 l 1
EndSplineSet
EndChar

StartChar: asciicircum
Encoding: 94 94 78
Width: 640
Flags: HW
LayerCount: 2
Fore
SplineSet
49.5498046875 578.403320312 m 1
 320 773.127929688 l 1
 590.450195312 578.403320312 l 1
 549.549804688 521.596679688 l 1
 320 686.873046875 l 1
 90.4501953125 521.596679688 l 1
 49.5498046875 578.403320312 l 1
EndSplineSet
EndChar

StartChar: braceleft
Encoding: 123 123 79
Width: 640
Flags: HW
LayerCount: 2
Fore
SplineSet
480 765 m 1
 480 695 l 1
 445 695 l 2
 372.819335938 695 321.265625 669.91015625 286.375976562 618.971679688 c 0
 253.18359375 570.510742188 234.216796875 497.529296875 230.626953125 400.001953125 c 1
 425 400 l 1
 425 330 l 1
 230.626953125 329.997070312 l 1
 234.216796875 232.469726562 253.18359375 159.489257812 286.375976562 111.028320312 c 0
 321.265625 60.08984375 372.819335938 35 445 35 c 2
 480 35 l 1
 480 -35 l 1
 445 -35 l 2
 350.513671875 -35 277.068359375 0.7431640625 228.624023438 71.4716796875 c 0
 182.341796875 139.044921875 160 236.899414062 160 365 c 0
 160 493.100585938 182.341796875 590.955078125 228.624023438 658.528320312 c 0
 277.068359375 729.256835938 350.513671875 765 445 765 c 2
 480 765 l 1
EndSplineSet
EndChar

StartChar: a
Encoding: 97 97 80
Width: 640
Flags: HW
LayerCount: 2
Fore
SplineSet
329.999023438 240 m 1
 570 0 l 1
 471.00390625 0 l 1
 301.00390625 170 l 1
 140 170.000976562 l 1
 140 0 l 1
 70 0 l 1
 70 240 l 1
 329.999023438 240 l 1
329.999023438 310 m 1
 70 310 l 1
 70 550 l 1
 140 550 l 1
 140 379.999023438 l 1
 301.00390625 380 l 1
 471.00390625 550 l 1
 570 550 l 1
 329.999023438 310 l 1
EndSplineSet
EndChar

StartChar: P
Encoding: 80 80 81
Width: 640
Flags: HW
LayerCount: 2
Fore
SplineSet
500 0 m 1
 500 730 l 1
 570 730 l 1
 570 0 l 1
 500 0 l 1
226 550 m 1
 226 730 l 1
 296 730 l 1
 296 550 l 1
 226 550 l 1
570 0 m 1
 194 0 l 1
 194 70 l 1
 570 70 l 1
 570 0 l 1
261.455078125 730 m 1
 249.697265625 711.340820312 l 2
 176.409179688 595.036132812 140.0859375 479.749023438 140.0859375 365 c 0
 140.0859375 250.251953125 176.409179688 134.963867188 249.697265625 18.6591796875 c 2
 261.455078125 -0.0009765625 l 1
 179.006835938 -0.0009765625 l 1
 106.576171875 120.905273438 70.0859375 242.708984375 70.0859375 365 c 0
 70.0859375 487.291992188 106.576171875 609.094726562 179.005859375 730 c 1
 261.455078125 730 l 1
EndSplineSet
EndChar

StartChar: percent
Encoding: 37 37 82
Width: 640
Flags: HW
LayerCount: 2
Fore
SplineSet
472.719726562 800 m 1
 239.603515625 -70 l 1
 167.135742188 -70 l 1
 400.251953125 800 l 1
 472.719726562 800 l 1
430 140 m 1
 500 140 l 1
 500 70 l 1
 430 70 l 1
 430 140 l 1
140 660 m 1
 210 660 l 1
 210 590 l 1
 140 590 l 1
 140 660 l 1
EndSplineSet
EndChar

StartChar: w
Encoding: 119 119 83
Width: 640
Flags: HW
LayerCount: 2
Fore
SplineSet
70 0 m 1
 70 550 l 1
 570 550 l 1
 570 0 l 1
 70 0 l 1
500 480 m 1
 140 480 l 1
 140 70 l 1
 500 70 l 1
 500 480 l 1
EndSplineSet
EndChar

StartChar: o
Encoding: 111 111 84
Width: 640
Flags: HW
LayerCount: 2
Fore
SplineSet
472.860351562 550 m 1
 569.840820312 0 l 1
 498.759765625 0 l 1
 141.079101562 0 l 1
 141.078125 0 l 1
 70 0 l 1
 166.98046875 550 l 1
 472.860351562 550 l 1
414.124023438 480 m 1
 225.715820312 480 l 1
 153.421875 70 l 1
 486.41796875 70 l 1
 414.124023438 480 l 1
EndSplineSet
EndChar

StartChar: colon
Encoding: 58 58 85
Width: 640
Flags: HW
LayerCount: 2
Fore
SplineSet
355 205 m 1
 355 135 l 1
 285 135 l 1
 285 205 l 1
 355 205 l 1
355 415 m 1
 355 345 l 1
 285 345 l 1
 285 415 l 1
 355 415 l 1
EndSplineSet
EndChar

StartChar: j
Encoding: 106 106 86
Width: 640
Flags: HW
LayerCount: 2
Fore
SplineSet
529 550.002929688 m 1
 570 550.002929688 l 1
 422.627929688 0 l 1
 70 0 l 1
 70 70 l 1
 368.9140625 70.0009765625 l 1
 438.735351562 330.560546875 l 1
 334.862304688 206.704101562 213.10546875 143.708984375 73.818359375 143.708984375 c 2
 70 143.708984375 l 1
 70 213.709960938 l 1
 73.818359375 213.708984375 l 2
 241.544921875 213.708984375 382.448242188 323.77734375 497.530273438 550.002929688 c 1
 529 550.002929688 l 1
EndSplineSet
EndChar

StartChar: grave
Encoding: 96 96 87
Width: 640
Flags: HW
LayerCount: 2
Fore
SplineSet
358.890625 623.611328125 m 1
 231.611328125 750.890625 l 1
 281.109375 800.388671875 l 1
 408.388671875 673.109375 l 1
 358.890625 623.611328125 l 1
EndSplineSet
EndChar

StartChar: f
Encoding: 102 102 88
Width: 640
Flags: HW
LayerCount: 2
Fore
SplineSet
70 275 m 1
 70 310.0078125 l 1
 73.8935546875 310.021484375 l 2
 155.067382812 310.619140625 225.315429688 322.46875 285.000976562 345.645507812 c 1
 285 550 l 1
 355 550 l 1
 355.000976562 381.08203125 l 1
 416.48828125 420.713867188 462.740234375 476.971679688 494.400390625 549.994140625 c 1
 570 550 l 1
 564.813476562 537.016601562 l 2
 521.458984375 428.48828125 451.114257812 349.543945312 355.00390625 300.442382812 c 1
 355 70.0009765625 l 1
 570 70 l 1
 570 0 l 1
 70 0 l 1
 70 275 l 1
285.004882812 271.430664062 m 1
 240.904296875 256.940429688 192.541992188 247.451171875 140 242.981445312 c 1
 140 70.0009765625 l 1
 285 70.0009765625 l 1
 285.004882812 271.430664062 l 1
EndSplineSet
EndChar

StartChar: less
Encoding: 60 60 89
Width: 640
Flags: HW
LayerCount: 2
Fore
SplineSet
577.6328125 778.905273438 m 1
 618.905273438 722.3671875 l 1
 129.361328125 365 l 1
 618.905273438 7.6328125 l 1
 577.6328125 -48.9052734375 l 1
 10.638671875 365 l 1
 577.6328125 778.905273438 l 1
577.6328125 778.905273438 m 1
 618.905273438 722.3671875 l 1
 129.361328125 365 l 1
 618.905273438 7.6328125 l 1
 577.6328125 -48.9052734375 l 1
 10.638671875 365 l 1
 577.6328125 778.905273438 l 1
EndSplineSet
EndChar

StartChar: hyphen
Encoding: 45 45 90
Width: 640
Flags: HW
LayerCount: 2
Fore
SplineSet
135 310 m 1
 505 310 l 1
 505 240 l 1
 135 240 l 1
 135 310 l 1
EndSplineSet
EndChar

StartChar: p
Encoding: 112 112 91
Width: 640
Flags: HW
LayerCount: 2
Fore
SplineSet
152.60546875 -0.0009765625 m 1
 97.0654296875 91.0126953125 69 182.813476562 69 275 c 0
 69 367.333007812 97.1552734375 459.13671875 152.872070312 550 c 1
 271 550 l 1
 271 365 l 1
 201 365 l 1
 200.999023438 493.790039062 l 1
 159.513671875 420.203125 139 347.37890625 139 275 c 0
 139 207.251953125 156.97265625 139.002929688 193.294921875 69.9990234375 c 1
 500 70 l 1
 500 550 l 1
 570 550 l 1
 570 -0.0009765625 l 1
 152.60546875 -0.0009765625 l 1
EndSplineSet
EndChar

StartChar: quotedbl
Encoding: 34 34 92
Width: 640
Flags: HW
LayerCount: 2
Fore
SplineSet
215 620 m 1
 215 800 l 1
 285 800 l 1
 285 620 l 1
 215 620 l 1
355 620 m 1
 355 800 l 1
 425 800 l 1
 425 620 l 1
 355 620 l 1
EndSplineSet
EndChar

StartChar: E
Encoding: 69 69 93
Width: 640
Flags: HW
LayerCount: 2
Fore
SplineSet
265.602539062 0 m 1
 70 730 l 1
 142.469726562 730 l 1
 301.836914062 135.227539062 l 1
 461 729.235351562 l 1
 461 730 l 1
 570 730 l 1
 570 660 l 1
 531.205078125 660 l 1
 531.205078125 0 l 1
 461.205078125 0 l 1
 461.205078125 459.538085938 l 1
 338.072265625 0 l 1
 265.602539062 0 l 1
EndSplineSet
EndChar

StartChar: K
Encoding: 75 75 94
Width: 640
Flags: HW
LayerCount: 2
Fore
SplineSet
70 0 m 1
 70 70 l 1
 500 70 l 1
 500 660 l 1
 70 660 l 1
 70 730 l 1
 570 730 l 1
 570 0 l 1
 70 0 l 1
EndSplineSet
EndChar
